<?xml version="1.0" encoding="UTF-8" standalone="no"?>
<!-- Created with Inkscape (http://www.inkscape.org/) -->

<svg
   xmlns:dc="http://purl.org/dc/elements/1.1/"
   xmlns:cc="http://creativecommons.org/ns#"
   xmlns:rdf="http://www.w3.org/1999/02/22-rdf-syntax-ns#"
   xmlns:svg="http://www.w3.org/2000/svg"
   xmlns="http://www.w3.org/2000/svg"
   xmlns:sodipodi="http://sodipodi.sourceforge.net/DTD/sodipodi-0.dtd"
   xmlns:inkscape="http://www.inkscape.org/namespaces/inkscape"
   width="64"
   height="64"
   id="svg2"
   version="1.1"
   inkscape:version="0.48.2 r9819"
   sodipodi:docname="btn_ps3_ps.svg"
   inkscape:export-filename="btn_ps3_ps.png"
   inkscape:export-xdpi="90"
   inkscape:export-ydpi="90">
  <defs
     id="defs4" />
  <sodipodi:namedview
     id="base"
     pagecolor="#ffffff"
     bordercolor="#666666"
     borderopacity="1.0"
     inkscape:pageopacity="0.0"
     inkscape:pageshadow="2"
     inkscape:zoom="11.313709"
     inkscape:cx="27.602691"
     inkscape:cy="31.314705"
     inkscape:document-units="px"
     inkscape:current-layer="layer1"
     showgrid="false"
     showguides="true"
     inkscape:guide-bbox="true"
     inkscape:window-width="1920"
     inkscape:window-height="1021"
     inkscape:window-x="0"
     inkscape:window-y="27"
     inkscape:window-maximized="1">
    <sodipodi:guide
       orientation="1,0"
       position="8,32"
       id="guide2987" />
    <sodipodi:guide
       orientation="0,1"
       position="32,56"
       id="guide2989" />
    <sodipodi:guide
       orientation="1,0"
       position="56,32"
       id="guide2991" />
    <sodipodi:guide
       orientation="0,1"
       position="32,8"
       id="guide2993" />
    <inkscape:grid
       type="xygrid"
       id="grid2989"
       empspacing="5"
       visible="true"
       enabled="true"
       snapvisiblegridlinesonly="true" />
  </sodipodi:namedview>
  <metadata
     id="metadata7">
    <rdf:RDF>
      <cc:Work
         rdf:about="">
        <dc:format>image/svg+xml</dc:format>
        <dc:type
           rdf:resource="http://purl.org/dc/dcmitype/StillImage" />
        <dc:title></dc:title>
      </cc:Work>
    </rdf:RDF>
  </metadata>
  <g
     inkscape:groupmode="layer"
     id="layer2"
     inkscape:label="Background"
     sodipodi:insensitive="true"
     style="display:none">
    <rect
       style="fill:#000000;stroke:none"
       id="rect3766"
       width="64"
       height="64"
       x="0"
       y="0" />
  </g>
  <g
     inkscape:label="Layer 1"
     inkscape:groupmode="layer"
     id="layer1"
     transform="translate(0,-988.3622)"
     style="opacity:1">
    <path
       inkscape:connector-curvature="0"
       clip-rule="evenodd"
       d="m 34.212545,1007.95 -0.0367,33.6622 -9.01908,-2.9333 0,-39.5667 11.51234,3.0437 c 7.369136,1.9805 11.878843,5.8304 11.805454,12.5776 -0.07328,7.8476 -3.702972,11.0008 -10.778994,8.9473 l 0,-15.4747 c 0,-1.8702 -3.48302,-1.9797 -3.48302,-0.2561 l 0,0 z"
       id="path7"
       style="opacity:0.50000000000000000;fill:#ffffff;fill-opacity:1;fill-rule:evenodd;stroke:none;stroke-opacity:1;marker-start:none" />
    <path
       style="opacity:0.5;fill:#ffffff;fill-opacity:1;fill-rule:evenodd"
       d="M 24.75 34.34375 L 21.59375 35.4375 L 8.6875 39.78125 C 8.6508 39.78125 8.57328 39.84375 8.5 39.84375 C 6.11671 40.65075 3.88423 42.36095 4.03125 44.78125 C 4.17791 47.23785 9.79832 47.83445 14.125 48.53125 C 17.998376 49.164874 21.520004 48.815518 24.75 47.75 L 24.75 42.53125 L 21 43.78125 L 16.75 45.21875 C 13.99986 46.17235 11.65777 43.94855 14.1875 43.03125 L 16.25 42.28125 L 24.75 39.25 L 24.75 34.34375 z M 46.875 36.75 C 42.817396 36.746641 38.820134 37.715 34.90625 39.0625 L 34.5625 39.1875 L 34.5625 44.4375 L 42.21875 41.8125 L 46.90625 40.21875 C 51.819272 39.30235 53.792383 40.9339 49.0625 42.4375 L 46.71875 43.25 L 34.5625 47.40625 L 34.5625 53.125 L 42.125 50.5 L 55.21875 45.875 L 55.375 45.84375 C 58.821447 44.63405 60.272643 42.9513 59.90625 41.375 C 59.319578 38.735 55.114683 37.2894 48.625 36.8125 C 48.042981 36.771287 47.454658 36.75048 46.875 36.75 z "
       transform="translate(0,988.3622)"
       id="path13-0" />
  </g>
</svg>
