<?xml version="1.0" encoding="UTF-8" standalone="no"?>
<!-- Created with Inkscape (http://www.inkscape.org/) -->

<svg
   xmlns:dc="http://purl.org/dc/elements/1.1/"
   xmlns:cc="http://creativecommons.org/ns#"
   xmlns:rdf="http://www.w3.org/1999/02/22-rdf-syntax-ns#"
   xmlns:svg="http://www.w3.org/2000/svg"
   xmlns="http://www.w3.org/2000/svg"
   xmlns:xlink="http://www.w3.org/1999/xlink"
   xmlns:sodipodi="http://sodipodi.sourceforge.net/DTD/sodipodi-0.dtd"
   xmlns:inkscape="http://www.inkscape.org/namespaces/inkscape"
   inkscape:export-ydpi="180"
   inkscape:export-xdpi="180"
   inkscape:export-filename="menu_paste.png"
   sodipodi:docname="menu_paste.svg"
   inkscape:version="0.48.1 r9760"
   version="1.1"
   id="svg2"
   height="48"
   width="48">
  <defs
     id="defs4">
    <filter
       inkscape:collect="always"
       id="filter4021"
       color-interpolation-filters="sRGB">
      <feGaussianBlur
         inkscape:collect="always"
         stdDeviation="1.1303915"
         id="feGaussianBlur4023" />
    </filter>
    <linearGradient
       id="linearGradient4547-8-6-7-1">
      <stop
         style="stop-color:#8c8c8c;stop-opacity:1;"
         offset="0"
         id="stop4549-6-1-9-4" />
      <stop
         style="stop-color:#b2b2b2;stop-opacity:1;"
         offset="1"
         id="stop4551-0-6-5-1" />
    </linearGradient>
    <linearGradient
       y2="967.72156"
       x2="51.28125"
       y1="1003.8736"
       x1="51.666367"
       gradientTransform="matrix(0.5479452,0,0,0.86394186,-4.013697,176.33428)"
       gradientUnits="userSpaceOnUse"
       id="linearGradient5297"
       xlink:href="#linearGradient4547-8-6-7-1"
       inkscape:collect="always" />
    <linearGradient
       id="linearGradient4547-8-6-7-1-1">
      <stop
         style="stop-color:#8c8c8c;stop-opacity:1;"
         offset="0"
         id="stop4549-6-1-9-4-4" />
      <stop
         style="stop-color:#b2b2b2;stop-opacity:1;"
         offset="1"
         id="stop4551-0-6-5-1-0" />
    </linearGradient>
    <clipPath
       clipPathUnits="userSpaceOnUse"
       id="clipPath5360">
      <path
         inkscape:connector-curvature="0"
         id="path5362"
         style="fill:url(#linearGradient5364);fill-opacity:1;stroke:none"
         d="m 44.23287,972.90395 c -1.0806,0 -1.95205,1.39432 -1.95205,3.12329 l 0,2.8899 c 0,0.2161 0.008,0.45398 0.0343,0.65751 l -4.86301,0 c -1.0806,0 -1.95206,1.39432 -1.95206,3.12329 l 0,5.20601 c 0,1.72897 0.87146,3.12329 1.95206,3.12329 l 21.09589,0 c 1.0806,0 1.95206,-1.39432 1.95206,-3.12329 l 0,-5.20601 c 0,-1.72897 -0.87146,-3.12329 -1.95206,-3.12329 l -4.86301,0 c 0.0259,-0.20353 0.0343,-0.44141 0.0343,-0.65751 l 0,-2.8899 c 0,-1.72897 -0.87146,-3.12329 -1.95206,-3.12329 z m -15.88912,8.9164 c -2.35977,0 -4.34375,1.984 -4.34375,4.34375 l 0,45.2813 c 0,2.3597 1.98401,4.375 4.34375,4.375 l 39.3125,0 c 2.35974,0 4.34375,-2.0153 4.34375,-4.375 l 0,-45.28131 c 0,-2.35975 -1.98398,-4.34375 -4.34375,-4.34375 z m 1.65625,6 36,0 0,42.00005 -36,0 z"
         sodipodi:nodetypes="ssscsssssssscsssssssssssssccccc" />
    </clipPath>
    <linearGradient
       inkscape:collect="always"
       xlink:href="#linearGradient4547-8-6-7-1-1"
       id="linearGradient5364"
       gradientUnits="userSpaceOnUse"
       gradientTransform="matrix(1.0958904,0,0,1.7534249,-8.0273962,-724.88265)"
       x1="51.666367"
       y1="1003.8736"
       x2="51.28125"
       y2="967.72156" />
  </defs>
  <sodipodi:namedview
     id="base"
     pagecolor="#ffffff"
     bordercolor="#666666"
     borderopacity="1.0"
     inkscape:pageopacity="0.0"
     inkscape:pageshadow="2"
     inkscape:zoom="11.313708"
     inkscape:cx="32.136461"
     inkscape:cy="22.945198"
     inkscape:document-units="px"
     inkscape:current-layer="layer1"
     showgrid="false"
     showguides="true"
     inkscape:guide-bbox="true"
     inkscape:window-width="1920"
     inkscape:window-height="1022"
     inkscape:window-x="0"
     inkscape:window-y="26"
     inkscape:window-maximized="1">
    <inkscape:grid
       type="xygrid"
       id="grid3757"
       empspacing="5"
       visible="true"
       enabled="true"
       snapvisiblegridlinesonly="true" />
  </sodipodi:namedview>
  <metadata
     id="metadata7">
    <rdf:RDF>
      <cc:Work
         rdf:about="">
        <dc:format>image/svg+xml</dc:format>
        <dc:type
           rdf:resource="http://purl.org/dc/dcmitype/StillImage" />
        <dc:title />
      </cc:Work>
    </rdf:RDF>
  </metadata>
  <g
     inkscape:label="Layer 1"
     inkscape:groupmode="layer"
     id="layer1"
     transform="translate(0,-1004.3622)">
    <path
       inkscape:connector-curvature="0"
       id="rect4065-0-3-3"
       style="fill:url(#linearGradient5297);fill-opacity:1;stroke:none"
       d="m 22.116435,1012.8622 c -0.5403,0 -0.976025,0.687 -0.976025,1.5389 l 0,1.4239 c 0,0.1065 0.004,0.2237 0.01715,0.324 l -2.431505,0 c -0.5403,0 -0.97603,0.687 -0.97603,1.5389 l 0,2.5651 c 0,0.8519 0.43573,1.5389 0.97603,1.5389 l 10.547945,0 c 0.5403,0 0.97603,-0.687 0.97603,-1.5389 l 0,-2.5651 c 0,-0.8519 -0.43573,-1.5389 -0.97603,-1.5389 l -2.431505,0 c 0.01295,-0.1003 0.01715,-0.2175 0.01715,-0.324 l 0,-1.4239 c 0,-0.8519 -0.43573,-1.5389 -0.97603,-1.5389 z m -7.94456,4.3933 C 12.99199,1017.2555 12,1018.233 12,1019.3957 l 0,22.3109 c 0,1.1626 0.992005,2.1556 2.171875,2.1556 l 19.65625,0 c 1.17987,0 2.171875,-0.993 2.171875,-2.1556 l 0,-22.3109 c 0,-1.1627 -0.99199,-2.1402 -2.171875,-2.1402 z M 15,1020.2118 l 18,0 0,20.6941 -18,0 z"
       sodipodi:nodetypes="ssscsssssssscsssssssssssssccccc" />
    <path
       style="opacity:0.4;fill:#000000;stroke:none;filter:url(#filter4021)"
       clip-path="url(#clipPath5360)"
       d="m 10.1875,964.29968 c -2.5892399,0 -4.6875,2.68758 -4.6875,6 l 0,72.12502 c 0,3.3124 2.0982601,6 4.6875,6 l 75.625,0 c 2.58924,0 4.6875,-2.6876 4.6875,-6 l 0,-72.12502 c 0,-3.31242 -2.09826,-6 -4.6875,-6 l -75.625,0 z m 34.03125,10.59375 7.5625,0 c 1.0806,0 1.9375,1.39602 1.9375,3.125 l 0,2.90625 c 0,0.2161 -0.0053,0.45273 -0.03125,0.65625 l 4.875,0 c 0.888199,0 1.605935,0.95444 1.84375,2.25 l 7.25,0 c 2.35977,0 4.34375,1.984 4.34375,4.34375 l 0,45.28122 c 0,2.3597 -1.98401,4.375 -4.34375,4.375 l -39.3125,0 c -2.35974,0 -4.34375,-2.0153 -4.34375,-4.375 l 0,-45.28122 c 0,-2.35975 1.98398,-4.34375 4.34375,-4.34375 l 7.25,0 c 0.237815,-1.29556 0.955551,-2.25 1.84375,-2.25 l 4.875,0 c -0.0263,-0.20352 -0.03125,-0.44015 -0.03125,-0.65625 l 0,-2.90625 c 0,-1.72898 0.8569,-3.125 1.9375,-3.125 z M 30,989.83093 l 0,41.99997 36,0 0,-41.99997 -5.5,0 0,0.0625 c 0,1.72897 -0.8569,3.125 -1.9375,3.125 l -21.125,0 c -1.0806,0 -1.9375,-1.39603 -1.9375,-3.125 l 0,-0.0625 -5.5,0 z"
       id="rect4801"
       inkscape:connector-curvature="0"
       transform="matrix(0.5,0,0,0.49271677,0,533.49611)" />
  </g>
</svg>
