<?xml version="1.0" encoding="UTF-8" standalone="no"?>
<!-- Created with Inkscape (http://www.inkscape.org/) -->

<svg
   xmlns:dc="http://purl.org/dc/elements/1.1/"
   xmlns:cc="http://creativecommons.org/ns#"
   xmlns:rdf="http://www.w3.org/1999/02/22-rdf-syntax-ns#"
   xmlns:svg="http://www.w3.org/2000/svg"
   xmlns="http://www.w3.org/2000/svg"
   xmlns:sodipodi="http://sodipodi.sourceforge.net/DTD/sodipodi-0.dtd"
   xmlns:inkscape="http://www.inkscape.org/namespaces/inkscape"
   width="184"
   height="184"
   id="svg3901"
   version="1.1"
   inkscape:version="0.48.1 r9760"
   sodipodi:docname="problem.svg"
   inkscape:export-filename="problem.png"
   inkscape:export-xdpi="90"
   inkscape:export-ydpi="90">
  <defs
     id="defs3903" />
  <sodipodi:namedview
     id="base"
     pagecolor="#ffffff"
     bordercolor="#666666"
     borderopacity="1.0"
     inkscape:pageopacity="0.0"
     inkscape:pageshadow="2"
     inkscape:zoom="2"
     inkscape:cx="94.501759"
     inkscape:cy="81.373141"
     inkscape:document-units="px"
     inkscape:current-layer="layer1"
     showgrid="false"
     inkscape:window-width="1920"
     inkscape:window-height="1022"
     inkscape:window-x="0"
     inkscape:window-y="26"
     inkscape:window-maximized="1"
     showguides="true"
     inkscape:guide-bbox="true">
    <sodipodi:guide
       orientation="1,0"
       position="16,92"
       id="guide2986" />
    <sodipodi:guide
       orientation="1,0"
       position="168,92"
       id="guide2988" />
    <sodipodi:guide
       orientation="0,1"
       position="92,168"
       id="guide2990" />
    <sodipodi:guide
       orientation="0,1"
       position="92,16"
       id="guide2992" />
  </sodipodi:namedview>
  <metadata
     id="metadata3906">
    <rdf:RDF>
      <cc:Work
         rdf:about="">
        <dc:format>image/svg+xml</dc:format>
        <dc:type
           rdf:resource="http://purl.org/dc/dcmitype/StillImage" />
        <dc:title></dc:title>
      </cc:Work>
    </rdf:RDF>
  </metadata>
  <g
     inkscape:groupmode="layer"
     id="layer3"
     inkscape:label="Background"
     style="display:none"
     transform="translate(0,-8)"
     sodipodi:insensitive="true">
    <rect
       style="fill:#000000;fill-opacity:1;stroke:none;display:inline"
       id="rect3081"
       width="184"
       height="184"
       x="0"
       y="8.0000029"
       rx="0"
       ry="0" />
  </g>
  <g
     inkscape:label="Layer 1"
     inkscape:groupmode="layer"
     id="layer1"
     transform="translate(0,-868.36218)">
    <g
       transform="matrix(3.5515375,0,0,3.7856391,-228.2358,661.23812)"
       id="Warning"
       style="opacity:0.7;fill:#ffffff;fill-opacity:1">
      <path
         style="fill:#ffffff;fill-opacity:1"
         d="m 95.96875,29.9375 c -2.052142,8.3e-4 -4.11703,2.576958 -7.1875,7.71875 L 24,149.375 c -6.144258,10.28358 -7.38938,12.6875 4.59375,12.6875 l 134.8125,0 C 175.38274,162.05918 174.1509,159.65526 168,149.375 L 103.125,37.65625 C 100.04789,32.514458 98.020892,29.93667 95.96875,29.9375 z M 89.75,72.5 l 12.5,0 c 0.69031,0 1.25,0.61121 1.25,1.375 l 0,43.25 c 0,0.76379 -0.55969,1.375 -1.25,1.375 l -12.5,0 c -0.690306,0 -1.25,-0.61121 -1.25,-1.375 l 0,-43.25 c 0,-0.76379 0.559694,-1.375 1.25,-1.375 z m 0,55.3125 12.5,0 c 0.69031,0 1.25,0.21969 1.25,0.46875 l 0,14.09375 c 0,0.24906 -0.55969,0.4375 -1.25,0.4375 l -12.5,0 c -0.690306,0 -1.25,-0.18844 -1.25,-0.4375 l 0,-14.09375 c 0,-0.24906 0.559694,-0.46875 1.25,-0.46875 z"
         transform="matrix(0.30125686,0,0,0.30125686,61.247487,50.094813)"
         id="path1356"
         inkscape:connector-curvature="0" />
    </g>
  </g>
</svg>
