<?xml version="1.0" encoding="UTF-8" standalone="no"?>
<!-- Created with Inkscape (http://www.inkscape.org/) -->

<svg
   xmlns:dc="http://purl.org/dc/elements/1.1/"
   xmlns:cc="http://creativecommons.org/ns#"
   xmlns:rdf="http://www.w3.org/1999/02/22-rdf-syntax-ns#"
   xmlns:svg="http://www.w3.org/2000/svg"
   xmlns="http://www.w3.org/2000/svg"
   xmlns:xlink="http://www.w3.org/1999/xlink"
   xmlns:sodipodi="http://sodipodi.sourceforge.net/DTD/sodipodi-0.dtd"
   xmlns:inkscape="http://www.inkscape.org/namespaces/inkscape"
   width="640"
   height="640"
   id="svg3290"
   version="1.1"
   inkscape:version="0.48.1 r9760"
   sodipodi:docname="scroll.svg"
   inkscape:export-filename="scroll.png"
   inkscape:export-xdpi="90"
   inkscape:export-ydpi="90">
  <defs
     id="defs3292" />
  <sodipodi:namedview
     id="base"
     pagecolor="#ffffff"
     bordercolor="#666666"
     borderopacity="1.0"
     inkscape:pageopacity="0.0"
     inkscape:pageshadow="2"
     inkscape:zoom="0.5"
     inkscape:cx="38.56733"
     inkscape:cy="342.57737"
     inkscape:document-units="px"
     inkscape:current-layer="layer1"
     showgrid="false"
     inkscape:window-width="1920"
     inkscape:window-height="1022"
     inkscape:window-x="0"
     inkscape:window-y="26"
     inkscape:window-maximized="1"
     showguides="true"
     inkscape:guide-bbox="true">
    <inkscape:grid
       type="xygrid"
       id="grid4375"
       empspacing="5"
       visible="true"
       enabled="true"
       snapvisiblegridlinesonly="true" />
    <sodipodi:guide
       orientation="0,1"
       position="320,565"
       id="guide3806" />
    <sodipodi:guide
       orientation="0,1"
       position="320,75"
       id="guide3808" />
    <sodipodi:guide
       orientation="1,0"
       position="75,320"
       id="guide3810" />
    <sodipodi:guide
       orientation="1,0"
       position="565,320"
       id="guide3812" />
  </sodipodi:namedview>
  <metadata
     id="metadata3295">
    <rdf:RDF>
      <cc:Work
         rdf:about="">
        <dc:format>image/svg+xml</dc:format>
        <dc:type
           rdf:resource="http://purl.org/dc/dcmitype/StillImage" />
        <dc:title></dc:title>
      </cc:Work>
    </rdf:RDF>
  </metadata>
  <g
     inkscape:groupmode="layer"
     id="layer2"
     inkscape:label="Background"
     style="display:none"
     transform="translate(0,352)"
     sodipodi:insensitive="true">
    <rect
       style="fill:#000000;stroke:none"
       id="rect4340"
       width="640"
       height="640"
       x="0"
       y="-352" />
  </g>
  <g
     inkscape:groupmode="layer"
     id="layer3"
     inkscape:label="Base"
     style="display:inline">
    <path
       sodipodi:type="arc"
       style="opacity:0.7;fill:#33b5e5;fill-opacity:1;stroke:none;display:inline"
       id="path4381"
       sodipodi:cx="144.28572"
       sodipodi:cy="144.78572"
       sodipodi:rx="17.142857"
       sodipodi:ry="17.142857"
       d="m 161.42858,144.78572 a 17.142857,17.142857 0 1 1 -34.28572,0 17.142857,17.142857 0 1 1 34.28572,0 z"
       transform="matrix(1.6302257,0,0,1.6302257,84.78171,83.966597)" />
    <g
       style="display:inline"
       id="g4791"
       transform="matrix(1.7848929,0,0,1.7848929,62.975422,-1294.5428)">
      <path
         inkscape:connector-curvature="0"
         id="rect4661"
         d="M 158.43583,879.27859 147.53554,868.37829 144,864.84276 l -3.53553,3.53553 -10.9003,10.9003 1.21502,1.21501 L 144,867.27279 157.22082,880.4936 z"
         style="opacity:0.3;fill:#ffffff;fill-opacity:1;stroke:none"
         sodipodi:nodetypes="ccccccccc" />
      <use
         transform="translate(0,-22.177536)"
         height="288"
         width="288"
         id="use4753"
         xlink:href="#rect4661"
         y="0"
         x="0" />
      <use
         height="288"
         width="288"
         transform="translate(0,-20.266304)"
         id="use4755"
         xlink:href="#use4753"
         y="0"
         x="0" />
      <path
         sodipodi:nodetypes="ccccccccc"
         style="opacity:0.3;fill:#ffffff;fill-opacity:1;stroke:none"
         d="M 180.21732,803.5142 152.48588,775.78274 144,767.29688 l -8.48586,8.48586 -27.73146,27.73146 4.48517,4.48515 L 144,776.2672 l 31.73217,31.73215 z"
         id="use4755-1"
         inkscape:connector-curvature="0" />
      <use
         x="0"
         y="0"
         xlink:href="#rect4661"
         id="use3764"
         transform="translate(0,-64.981886)"
         width="640"
         height="640" />
    </g>
    <use
       x="0"
       y="0"
       xlink:href="#g4791"
       id="use3775"
       transform="matrix(0,1,-1,0,639.99995,4.0000009e-7)"
       width="640"
       height="640" />
    <use
       x="0"
       y="0"
       xlink:href="#g4791"
       id="use3777"
       transform="matrix(-1,0,0,-1,640,639.99995)"
       width="640"
       height="640" />
    <use
       x="0"
       y="0"
       xlink:href="#g4791"
       id="use3779"
       transform="matrix(0,-1,1,0,4.6695848e-5,640)"
       width="640"
       height="640" />
  </g>
  <g
     inkscape:groupmode="layer"
     id="layer4"
     inkscape:label="Vertical"
     style="display:inline">
    <path
       sodipodi:nodetypes="ccccccccc"
       style="fill:#33b5e5;fill-opacity:1;stroke:none;display:inline"
       d="M 384.64404,139.64404 335.14639,90.14635 320,75 l -15.14635,15.14635 -49.4977,49.49769 8.00556,8.0055 L 320,91.01106 l 56.63852,56.63848 z"
       id="use4755-1-1"
       inkscape:connector-curvature="0" />
    <use
       x="0"
       y="0"
       xlink:href="#use4755-1-1"
       id="use3802"
       transform="matrix(-1,0,0,-1,640,640)"
       width="640"
       height="640" />
  </g>
  <g
     inkscape:label="Horizontal"
     inkscape:groupmode="layer"
     id="layer1"
     transform="translate(0,-412.36218)"
     style="display:inline">
    <use
       style="display:inline"
       x="0"
       y="0"
       xlink:href="#use4755-1-1"
       id="use3825"
       transform="matrix(0,1,-1,0,640,412.36218)"
       width="640"
       height="640" />
    <use
       style="display:inline"
       x="0"
       y="0"
       xlink:href="#use4755-1-1"
       id="use3828"
       transform="matrix(0,-1,1,0,0,1052.3622)"
       width="640"
       height="640" />
  </g>
</svg>
